<mxfile host="app.diagrams.net" modified="2020-07-25T16:37:42.444Z" agent="5.0 (Macintosh; Intel Mac OS X 10_12_6) AppleWebKit/537.36 (KHTML, like Gecko) Chrome/83.0.4103.116 Safari/537.36" etag="UfCYE0q2YE5sSvCcSMKB" version="13.5.3" type="github">
  <diagram name="Page-1" id="099fd60b-425b-db50-ffb0-6b813814b670">
    <mxGraphModel dx="946" dy="614" grid="1" gridSize="10" guides="1" tooltips="1" connect="1" arrows="1" fold="1" page="1" pageScale="1" pageWidth="850" pageHeight="1100" background="#ffffff" math="0" shadow="0">
      <root>
        <mxCell id="0" />
        <mxCell id="1" parent="0" />
        <mxCell id="YF2KKnK4azbyPKn-prFc-1" value="" style="shape=image;html=1;verticalAlign=top;verticalLabelPosition=bottom;labelBackgroundColor=#ffffff;imageAspect=0;aspect=fixed;image=https://cdn3.iconfinder.com/data/icons/eco-flat-2/512/Nature_plant_tree-128.png" vertex="1" parent="1">
          <mxGeometry x="150" y="670" width="128" height="128" as="geometry" />
        </mxCell>
        <mxCell id="YF2KKnK4azbyPKn-prFc-2" value="" style="shape=image;html=1;verticalAlign=top;verticalLabelPosition=bottom;labelBackgroundColor=#ffffff;imageAspect=0;aspect=fixed;image=https://cdn3.iconfinder.com/data/icons/materia-flat-halloween-free/24/039_034_tree_gallows_horror_halloween-128.png" vertex="1" parent="1">
          <mxGeometry x="430" y="670" width="128" height="128" as="geometry" />
        </mxCell>
        <mxCell id="YF2KKnK4azbyPKn-prFc-3" value="" style="shape=image;html=1;verticalAlign=top;verticalLabelPosition=bottom;labelBackgroundColor=#ffffff;imageAspect=0;aspect=fixed;image=https://cdn4.iconfinder.com/data/icons/winter-1-2/512/Winter-49-128.png" vertex="1" parent="1">
          <mxGeometry x="278" y="668" width="130" height="130" as="geometry" />
        </mxCell>
        <mxCell id="YF2KKnK4azbyPKn-prFc-4" value="" style="shape=image;html=1;verticalAlign=top;verticalLabelPosition=bottom;labelBackgroundColor=#ffffff;imageAspect=0;aspect=fixed;image=https://cdn4.iconfinder.com/data/icons/tree-22/88/7-128.png" vertex="1" parent="1">
          <mxGeometry x="570" y="660" width="128" height="128" as="geometry" />
        </mxCell>
        <mxCell id="YF2KKnK4azbyPKn-prFc-6" value="" style="endArrow=none;html=1;" edge="1" parent="1">
          <mxGeometry width="50" height="50" relative="1" as="geometry">
            <mxPoint x="120" y="810" as="sourcePoint" />
            <mxPoint x="690" y="810" as="targetPoint" />
          </mxGeometry>
        </mxCell>
        <mxCell id="YF2KKnK4azbyPKn-prFc-7" value="Flat landscape" style="text;html=1;strokeColor=none;fillColor=none;align=center;verticalAlign=middle;whiteSpace=wrap;rounded=0;" vertex="1" parent="1">
          <mxGeometry x="310" y="788" width="230" height="20" as="geometry" />
        </mxCell>
        <mxCell id="YF2KKnK4azbyPKn-prFc-8" value="" style="rounded=0;whiteSpace=wrap;html=1;gradientColor=#999999;" vertex="1" parent="1">
          <mxGeometry x="120" y="810" width="570" height="20" as="geometry" />
        </mxCell>
        <mxCell id="YF2KKnK4azbyPKn-prFc-16" value="" style="shape=image;html=1;verticalAlign=top;verticalLabelPosition=bottom;labelBackgroundColor=#ffffff;imageAspect=0;aspect=fixed;image=https://cdn3.iconfinder.com/data/icons/eco-flat-2/512/Nature_plant_tree-128.png" vertex="1" parent="1">
          <mxGeometry x="150" y="240" width="128" height="128" as="geometry" />
        </mxCell>
        <mxCell id="YF2KKnK4azbyPKn-prFc-17" value="" style="shape=image;html=1;verticalAlign=top;verticalLabelPosition=bottom;labelBackgroundColor=#ffffff;imageAspect=0;aspect=fixed;image=https://cdn3.iconfinder.com/data/icons/materia-flat-halloween-free/24/039_034_tree_gallows_horror_halloween-128.png" vertex="1" parent="1">
          <mxGeometry x="430" y="220" width="128" height="128" as="geometry" />
        </mxCell>
        <mxCell id="YF2KKnK4azbyPKn-prFc-18" value="" style="shape=image;html=1;verticalAlign=top;verticalLabelPosition=bottom;labelBackgroundColor=#ffffff;imageAspect=0;aspect=fixed;image=https://cdn4.iconfinder.com/data/icons/winter-1-2/512/Winter-49-128.png" vertex="1" parent="1">
          <mxGeometry x="300" y="150" width="130" height="130" as="geometry" />
        </mxCell>
        <mxCell id="YF2KKnK4azbyPKn-prFc-19" value="" style="shape=image;html=1;verticalAlign=top;verticalLabelPosition=bottom;labelBackgroundColor=#ffffff;imageAspect=0;aspect=fixed;image=https://cdn4.iconfinder.com/data/icons/tree-22/88/7-128.png" vertex="1" parent="1">
          <mxGeometry x="580" y="230" width="128" height="128" as="geometry" />
        </mxCell>
        <mxCell id="YF2KKnK4azbyPKn-prFc-20" value="" style="endArrow=none;html=1;" edge="1" parent="1">
          <mxGeometry width="50" height="50" relative="1" as="geometry">
            <mxPoint x="120" y="380" as="sourcePoint" />
            <mxPoint x="690" y="380" as="targetPoint" />
          </mxGeometry>
        </mxCell>
        <mxCell id="YF2KKnK4azbyPKn-prFc-21" value="Flat landscape" style="text;html=1;strokeColor=none;fillColor=none;align=center;verticalAlign=middle;whiteSpace=wrap;rounded=0;" vertex="1" parent="1">
          <mxGeometry x="310" y="358" width="230" height="20" as="geometry" />
        </mxCell>
        <mxCell id="YF2KKnK4azbyPKn-prFc-22" value="" style="rounded=0;whiteSpace=wrap;html=1;gradientColor=#999999;" vertex="1" parent="1">
          <mxGeometry x="120" y="380" width="570" height="20" as="geometry" />
        </mxCell>
        <mxCell id="YF2KKnK4azbyPKn-prFc-23" value="" style="curved=1;endArrow=classic;html=1;" edge="1" parent="1">
          <mxGeometry width="50" height="50" relative="1" as="geometry">
            <mxPoint x="130" y="370" as="sourcePoint" />
            <mxPoint x="730" y="250" as="targetPoint" />
            <Array as="points">
              <mxPoint x="430" y="350" />
              <mxPoint x="540" y="310" />
              <mxPoint x="540" y="280" />
              <mxPoint x="670" y="250" />
            </Array>
          </mxGeometry>
        </mxCell>
      </root>
    </mxGraphModel>
  </diagram>
</mxfile>
